<svg xmlns="http://www.w3.org/2000/svg" viewBox="0 0 512 512">
  <defs>
    <radialGradient id="sky" cx="50%" cy="36%" r="78%">
      <stop offset="0%" stop-color="#e3f4fd"/>
      <stop offset="55%" stop-color="#bfe6f6"/>
      <stop offset="100%" stop-color="#9fd4ea"/>
    </radialGradient>
    <radialGradient id="cheek" cx="50%" cy="50%" r="50%">
      <stop offset="0%" stop-color="#f5a7ad"/>
      <stop offset="100%" stop-color="#f5a7ad" stop-opacity="0"/>
    </radialGradient>
    <linearGradient id="scarfSh" x1="0" y1="0" x2="0" y2="1">
      <stop offset="0%" stop-color="#ffffff" stop-opacity="0.20"/>
      <stop offset="45%" stop-color="#ffffff" stop-opacity="0"/>
      <stop offset="100%" stop-color="#7e2f33" stop-opacity="0.30"/>
    </linearGradient>
    <radialGradient id="faceSh" cx="50%" cy="42%" r="62%">
      <stop offset="0%" stop-color="#fbdcc4"/>
      <stop offset="100%" stop-color="#f1c3a2"/>
    </radialGradient>
    <clipPath id="round"><rect width="512" height="512" rx="104"/></clipPath>
  </defs>

  <g clip-path="url(#round)">
    <!-- sfondo azzurro -->
    <rect width="512" height="512" fill="url(#sky)"/>
    <ellipse cx="256" cy="250" rx="190" ry="200" fill="#ffffff" opacity="0.18"/>

    <!-- fazzoletto (platok) -->
    <path d="M 70,524 C 62,360 82,198 176,126 C 212,98 300,98 336,126
             C 430,198 450,360 442,524 Z" fill="#d05f66"/>
    <path d="M 70,524 C 62,360 82,198 176,126 C 212,98 300,98 336,126
             C 430,198 450,360 442,524 Z" fill="url(#scarfSh)"/>

    <!-- pois bianchi -->
    <g fill="#fdf2ec">
      <circle cx="256" cy="128" r="10"/>
      <circle cx="198" cy="150" r="8"/>
      <circle cx="314" cy="150" r="8"/>
      <circle cx="150" cy="216" r="9"/>
      <circle cx="362" cy="216" r="9"/>
      <circle cx="138" cy="330" r="9"/>
      <circle cx="374" cy="330" r="9"/>
      <circle cx="150" cy="420" r="11"/>
      <circle cx="256" cy="446" r="12"/>
      <circle cx="362" cy="420" r="11"/>
      <circle cx="112" cy="492" r="10"/>
      <circle cx="400" cy="492" r="10"/>
      <circle cx="210" cy="486" r="9"/>
      <circle cx="302" cy="486" r="9"/>
    </g>

    <!-- nodo sotto il mento -->
    <g fill="#bb5057">
      <ellipse cx="224" cy="388" rx="32" ry="21" transform="rotate(-20 224 388)"/>
      <ellipse cx="290" cy="388" rx="32" ry="21" transform="rotate(20 290 388)"/>
    </g>
    <circle cx="257" cy="382" r="19" fill="#c8565d"/>

    <!-- bordo crema attorno al viso -->
    <ellipse cx="256" cy="256" rx="115" ry="123" fill="#fbeee2"/>

    <!-- viso -->
    <ellipse cx="256" cy="258" rx="99" ry="107" fill="url(#faceSh)"/>

    <!-- orecchie -->
    <circle cx="158" cy="272" r="15" fill="#f1c3a2"/>
    <circle cx="354" cy="272" r="15" fill="#f1c3a2"/>

    <!-- frangia bionda -->
    <path d="M 168,196 C 168,158 210,140 256,140 C 302,140 344,158 344,196
             C 330,196 326,176 312,178 C 304,200 286,196 282,178
             C 274,202 256,200 250,180 C 242,202 224,200 220,180
             C 214,198 198,196 200,180 C 186,178 182,196 168,196 Z"
          fill="#f1ca74"/>
    <path d="M 256,140 C 302,140 344,158 344,196 C 332,194 328,178 314,178
             C 306,196 290,194 286,180 L 282,160 C 274,150 264,144 256,143 Z"
          fill="#f7d98f" opacity="0.7"/>

    <!-- guance -->
    <circle cx="196" cy="296" r="26" fill="url(#cheek)"/>
    <circle cx="316" cy="296" r="26" fill="url(#cheek)"/>

    <!-- sopracciglia -->
    <path d="M 200,232 Q 222,224 244,231" stroke="#cf9a55" stroke-width="5" fill="none" stroke-linecap="round"/>
    <path d="M 268,231 Q 290,224 312,232" stroke="#cf9a55" stroke-width="5" fill="none" stroke-linecap="round"/>

    <!-- occhi -->
    <g>
      <!-- bianco -->
      <ellipse cx="220" cy="262" rx="22" ry="20" fill="#ffffff"/>
      <ellipse cx="292" cy="262" rx="22" ry="20" fill="#ffffff"/>
      <!-- iride -->
      <circle cx="222" cy="264" r="14" fill="#4a86c5"/>
      <circle cx="290" cy="264" r="14" fill="#4a86c5"/>
      <circle cx="222" cy="264" r="7" fill="#21323f"/>
      <circle cx="290" cy="264" r="7" fill="#21323f"/>
      <!-- luci -->
      <circle cx="217" cy="258" r="4.5" fill="#ffffff"/>
      <circle cx="285" cy="258" r="4.5" fill="#ffffff"/>
      <circle cx="227" cy="269" r="2.2" fill="#ffffff" opacity="0.8"/>
      <circle cx="295" cy="269" r="2.2" fill="#ffffff" opacity="0.8"/>
      <!-- ciglia superiori -->
      <path d="M 200,254 Q 220,243 242,253" stroke="#5a3b2a" stroke-width="4.5" fill="none" stroke-linecap="round"/>
      <path d="M 270,253 Q 292,243 312,254" stroke="#5a3b2a" stroke-width="4.5" fill="none" stroke-linecap="round"/>
      <path d="M 240,252 l 6,-5 M 272,252 l -6,-5" stroke="#5a3b2a" stroke-width="3" stroke-linecap="round"/>
    </g>

    <!-- nasino -->
    <ellipse cx="256" cy="290" rx="6" ry="4.5" fill="#eab791"/>

    <!-- bocca -->
    <path d="M 234,308 Q 256,330 278,308 Q 256,318 234,308 Z" fill="#d76a6c"/>
    <path d="M 240,310 Q 256,320 272,310 Q 256,314 240,310 Z" fill="#f4a3a0" opacity="0.7"/>
  </g>
</svg>
